<svg xmlns="http://www.w3.org/2000/svg" viewBox="0 0 64 64" width="64" height="64" role="img" aria-labelledby="t">
  <title id="t">Singoda AI</title>
  <defs>
    <linearGradient id="sg" x1="0" y1="0" x2="64" y2="64" gradientUnits="userSpaceOnUse">
      <stop offset="0" stop-color="#8b5cf6"/>
      <stop offset="1" stop-color="#3b5bdb"/>
    </linearGradient>
  </defs>
  <g fill="url(#sg)">
    <!-- voice waveform, dot-matrix: columns of dots like speech captured mid-word -->
    <circle cx="12" cy="28.8" r="2.4"/><circle cx="12" cy="35.2" r="2.4"/>
    <circle cx="22" cy="16" r="2.4"/><circle cx="22" cy="22.4" r="2.4"/><circle cx="22" cy="28.8" r="2.4"/><circle cx="22" cy="35.2" r="2.4"/><circle cx="22" cy="41.6" r="2.4"/><circle cx="22" cy="48" r="2.4"/>
    <circle cx="32" cy="6.4" r="2.4"/><circle cx="32" cy="12.8" r="2.4"/><circle cx="32" cy="19.2" r="2.4"/><circle cx="32" cy="25.6" r="2.4"/><circle cx="32" cy="32" r="2.4"/><circle cx="32" cy="38.4" r="2.4"/><circle cx="32" cy="44.8" r="2.4"/><circle cx="32" cy="51.2" r="2.4"/><circle cx="32" cy="57.6" r="2.4"/>
    <circle cx="42" cy="19.2" r="2.4"/><circle cx="42" cy="25.6" r="2.4"/><circle cx="42" cy="32" r="2.4"/><circle cx="42" cy="38.4" r="2.4"/><circle cx="42" cy="44.8" r="2.4"/>
    <circle cx="52" cy="25.6" r="2.4"/><circle cx="52" cy="32" r="2.4"/><circle cx="52" cy="38.4" r="2.4"/>
  </g>
</svg>
